<mxfile host="app.diagrams.net" agent="Mozilla/5.0 (Windows NT 10.0; Win64; x64) AppleWebKit/537.36 (KHTML, like Gecko) Chrome/131.0.0.0 Safari/537.36" version="24.8.7">
  <diagram name="Page-1" id="aSZ1viRjcmQ8ZrEenBP2">
    <mxGraphModel dx="1533" dy="685" grid="1" gridSize="10" guides="1" tooltips="1" connect="1" arrows="1" fold="1" page="1" pageScale="1" pageWidth="850" pageHeight="1100" math="0" shadow="0">
      <root>
        <mxCell id="0" />
        <mxCell id="1" parent="0" />
        <mxCell id="4YJ_0RBNabMxKwJMMn93-26" value="" style="rounded=0;whiteSpace=wrap;html=1;" vertex="1" parent="1">
          <mxGeometry x="80" y="330" width="120" height="30" as="geometry" />
        </mxCell>
        <mxCell id="4YJ_0RBNabMxKwJMMn93-2" value="" style="rounded=0;whiteSpace=wrap;html=1;" vertex="1" parent="1">
          <mxGeometry x="80" y="160" width="320" height="120" as="geometry" />
        </mxCell>
        <mxCell id="4YJ_0RBNabMxKwJMMn93-4" value="" style="rounded=0;whiteSpace=wrap;html=1;" vertex="1" parent="1">
          <mxGeometry x="80" y="130" width="120" height="30" as="geometry" />
        </mxCell>
        <mxCell id="4YJ_0RBNabMxKwJMMn93-3" value="Presentation" style="text;html=1;align=center;verticalAlign=middle;whiteSpace=wrap;rounded=0;" vertex="1" parent="1">
          <mxGeometry x="80" y="130" width="120" height="30" as="geometry" />
        </mxCell>
        <mxCell id="4YJ_0RBNabMxKwJMMn93-18" value="" style="rounded=0;whiteSpace=wrap;html=1;" vertex="1" parent="1">
          <mxGeometry x="80" y="360" width="810" height="220" as="geometry" />
        </mxCell>
        <mxCell id="4YJ_0RBNabMxKwJMMn93-19" value="Application" style="text;html=1;align=center;verticalAlign=middle;whiteSpace=wrap;rounded=0;" vertex="1" parent="1">
          <mxGeometry x="80" y="330" width="120" height="30" as="geometry" />
        </mxCell>
        <mxCell id="4YJ_0RBNabMxKwJMMn93-32" value="" style="rounded=0;whiteSpace=wrap;html=1;" vertex="1" parent="1">
          <mxGeometry x="100" y="397.5" width="150" height="162.5" as="geometry" />
        </mxCell>
        <mxCell id="4YJ_0RBNabMxKwJMMn93-22" value="Controllers" style="text;html=1;align=center;verticalAlign=middle;whiteSpace=wrap;rounded=0;" vertex="1" parent="1">
          <mxGeometry x="100" y="410" width="80" height="30" as="geometry" />
        </mxCell>
        <mxCell id="4YJ_0RBNabMxKwJMMn93-35" value="" style="rounded=0;whiteSpace=wrap;html=1;" vertex="1" parent="1">
          <mxGeometry x="100" y="380" width="40" height="17.5" as="geometry" />
        </mxCell>
        <mxCell id="4YJ_0RBNabMxKwJMMn93-37" value="" style="rounded=0;whiteSpace=wrap;html=1;" vertex="1" parent="1">
          <mxGeometry x="100" y="201.25" width="79" height="55" as="geometry" />
        </mxCell>
        <mxCell id="4YJ_0RBNabMxKwJMMn93-38" value="Views" style="text;html=1;align=center;verticalAlign=middle;whiteSpace=wrap;rounded=0;" vertex="1" parent="1">
          <mxGeometry x="100" y="213.75" width="80" height="31.25" as="geometry" />
        </mxCell>
        <mxCell id="4YJ_0RBNabMxKwJMMn93-39" value="" style="rounded=0;whiteSpace=wrap;html=1;" vertex="1" parent="1">
          <mxGeometry x="100" y="183.75" width="40" height="17.5" as="geometry" />
        </mxCell>
        <mxCell id="4YJ_0RBNabMxKwJMMn93-40" value="" style="rounded=0;whiteSpace=wrap;html=1;" vertex="1" parent="1">
          <mxGeometry x="200" y="201.25" width="79" height="55" as="geometry" />
        </mxCell>
        <mxCell id="4YJ_0RBNabMxKwJMMn93-41" value="Components" style="text;html=1;align=center;verticalAlign=middle;whiteSpace=wrap;rounded=0;" vertex="1" parent="1">
          <mxGeometry x="200" y="213.75" width="80" height="31.25" as="geometry" />
        </mxCell>
        <mxCell id="4YJ_0RBNabMxKwJMMn93-42" value="" style="rounded=0;whiteSpace=wrap;html=1;" vertex="1" parent="1">
          <mxGeometry x="200" y="183.75" width="40" height="17.5" as="geometry" />
        </mxCell>
        <mxCell id="4YJ_0RBNabMxKwJMMn93-43" value="" style="rounded=0;whiteSpace=wrap;html=1;" vertex="1" parent="1">
          <mxGeometry x="300" y="201.25" width="79" height="55" as="geometry" />
        </mxCell>
        <mxCell id="4YJ_0RBNabMxKwJMMn93-44" value="Graphics" style="text;html=1;align=center;verticalAlign=middle;whiteSpace=wrap;rounded=0;" vertex="1" parent="1">
          <mxGeometry x="300" y="213.75" width="80" height="31.25" as="geometry" />
        </mxCell>
        <mxCell id="4YJ_0RBNabMxKwJMMn93-45" value="" style="rounded=0;whiteSpace=wrap;html=1;" vertex="1" parent="1">
          <mxGeometry x="300" y="183.75" width="40" height="17.5" as="geometry" />
        </mxCell>
        <mxCell id="4YJ_0RBNabMxKwJMMn93-46" value="" style="rounded=0;whiteSpace=wrap;html=1;" vertex="1" parent="1">
          <mxGeometry x="279" y="397.5" width="280" height="162.5" as="geometry" />
        </mxCell>
        <mxCell id="4YJ_0RBNabMxKwJMMn93-47" value="Managers" style="text;html=1;align=center;verticalAlign=middle;whiteSpace=wrap;rounded=0;" vertex="1" parent="1">
          <mxGeometry x="279" y="410" width="80" height="30" as="geometry" />
        </mxCell>
        <mxCell id="4YJ_0RBNabMxKwJMMn93-48" value="" style="rounded=0;whiteSpace=wrap;html=1;" vertex="1" parent="1">
          <mxGeometry x="279" y="380" width="40" height="17.5" as="geometry" />
        </mxCell>
        <mxCell id="4YJ_0RBNabMxKwJMMn93-50" value="Enchantment&lt;div&gt;Manager&lt;/div&gt;" style="rounded=0;whiteSpace=wrap;html=1;" vertex="1" parent="1">
          <mxGeometry x="299" y="450" width="110" height="40" as="geometry" />
        </mxCell>
        <mxCell id="4YJ_0RBNabMxKwJMMn93-55" value="Enemy Event Manager" style="rounded=0;whiteSpace=wrap;html=1;" vertex="1" parent="1">
          <mxGeometry x="429" y="500" width="110" height="40" as="geometry" />
        </mxCell>
        <mxCell id="4YJ_0RBNabMxKwJMMn93-56" value="Game State Manager" style="rounded=0;whiteSpace=wrap;html=1;" vertex="1" parent="1">
          <mxGeometry x="429" y="450" width="110" height="40" as="geometry" />
        </mxCell>
        <mxCell id="4YJ_0RBNabMxKwJMMn93-57" value="Hall Manager" style="rounded=0;whiteSpace=wrap;html=1;" vertex="1" parent="1">
          <mxGeometry x="299" y="500" width="110" height="40" as="geometry" />
        </mxCell>
        <mxCell id="4YJ_0RBNabMxKwJMMn93-58" value="Game Controller" style="rounded=0;whiteSpace=wrap;html=1;" vertex="1" parent="1">
          <mxGeometry x="120" y="450" width="110" height="40" as="geometry" />
        </mxCell>
        <mxCell id="4YJ_0RBNabMxKwJMMn93-59" value="" style="rounded=0;whiteSpace=wrap;html=1;" vertex="1" parent="1">
          <mxGeometry x="590" y="397.5" width="280" height="162.5" as="geometry" />
        </mxCell>
        <mxCell id="4YJ_0RBNabMxKwJMMn93-60" value="Listeners" style="text;html=1;align=center;verticalAlign=middle;whiteSpace=wrap;rounded=0;" vertex="1" parent="1">
          <mxGeometry x="590" y="410" width="80" height="30" as="geometry" />
        </mxCell>
        <mxCell id="4YJ_0RBNabMxKwJMMn93-61" value="" style="rounded=0;whiteSpace=wrap;html=1;" vertex="1" parent="1">
          <mxGeometry x="590" y="380" width="40" height="17.5" as="geometry" />
        </mxCell>
        <mxCell id="4YJ_0RBNabMxKwJMMn93-62" value="Key Listener" style="rounded=0;whiteSpace=wrap;html=1;" vertex="1" parent="1">
          <mxGeometry x="610" y="450" width="110" height="40" as="geometry" />
        </mxCell>
        <mxCell id="4YJ_0RBNabMxKwJMMn93-64" value="Game Listener" style="rounded=0;whiteSpace=wrap;html=1;" vertex="1" parent="1">
          <mxGeometry x="740" y="450" width="110" height="40" as="geometry" />
        </mxCell>
        <mxCell id="4YJ_0RBNabMxKwJMMn93-65" value="Hall Listener" style="rounded=0;whiteSpace=wrap;html=1;" vertex="1" parent="1">
          <mxGeometry x="675" y="500" width="110" height="40" as="geometry" />
        </mxCell>
        <mxCell id="4YJ_0RBNabMxKwJMMn93-67" value="" style="endArrow=none;dashed=1;html=1;rounded=0;entryX=1;entryY=0.5;entryDx=0;entryDy=0;" edge="1" parent="1" target="4YJ_0RBNabMxKwJMMn93-2">
          <mxGeometry width="50" height="50" relative="1" as="geometry">
            <mxPoint x="480" y="360" as="sourcePoint" />
            <mxPoint x="480" y="240" as="targetPoint" />
            <Array as="points">
              <mxPoint x="480" y="220" />
            </Array>
          </mxGeometry>
        </mxCell>
      </root>
    </mxGraphModel>
  </diagram>
</mxfile>
